<svg width="32" height="32" viewBox="0 0 32 32" fill="none" xmlns="http://www.w3.org/2000/svg">
<path d="M15.9993 2.71973C8.66602 2.71973 2.66602 8.70639 2.66602 16.0797C2.66602 22.7464 7.54601 28.2797 13.9193 29.2797V19.9464H10.5327V16.0797H13.9193V13.1331C13.9193 9.78639 15.906 7.94639 18.9594 7.94639C20.4127 7.94639 21.9327 8.19973 21.9327 8.19973V11.4931H20.2527C18.5993 11.4931 18.0793 12.5197 18.0793 13.5731V16.0797H21.786L21.186 19.9464H18.0793V29.2797C21.2213 28.7835 24.0823 27.1804 26.1459 24.7598C28.2095 22.3392 29.3398 19.2606 29.3327 16.0797C29.3327 8.70639 23.3327 2.71973 15.9993 2.71973Z" fill="#555555"/>
</svg>
