<svg width="32" height="32" viewBox="0 0 32 32" fill="none" xmlns="http://www.w3.org/2000/svg">
<path d="M17.3708 2.66675C18.8708 2.67075 19.6321 2.67875 20.2894 2.69741L20.5481 2.70675C20.8468 2.71741 21.1414 2.73075 21.4974 2.74675C22.9161 2.81341 23.8841 3.03741 24.7334 3.36675C25.6134 3.70541 26.3548 4.16408 27.0961 4.90408C27.7744 5.57039 28.299 6.37671 28.6334 7.26675C28.9628 8.11608 29.1868 9.08408 29.2534 10.5041C29.2694 10.8587 29.2828 11.1534 29.2934 11.4534L29.3014 11.7121C29.3214 12.3681 29.3294 13.1294 29.3321 14.6294L29.3334 15.6241V17.3707C29.3367 18.3433 29.3265 19.3158 29.3028 20.2881L29.2948 20.5467C29.2841 20.8467 29.2708 21.1414 29.2548 21.4961C29.1881 22.9161 28.9614 23.8827 28.6334 24.7334C28.299 25.6235 27.7744 26.4298 27.0961 27.0961C26.4298 27.7743 25.6235 28.299 24.7334 28.6334C23.8841 28.9627 22.9161 29.1868 21.4974 29.2534L20.5481 29.2934L20.2894 29.3014C19.6321 29.3201 18.8708 29.3294 17.3708 29.3321L16.3761 29.3334H14.6308C13.6578 29.3368 12.6848 29.3266 11.7121 29.3027L11.4534 29.2948C11.1369 29.2828 10.8205 29.269 10.5041 29.2534C9.08544 29.1868 8.11744 28.9627 7.26677 28.6334C6.37721 28.2988 5.57136 27.7742 4.90544 27.0961C4.2267 26.4299 3.70159 25.6236 3.36677 24.7334C3.03744 23.8841 2.81344 22.9161 2.74677 21.4961L2.70677 20.5467L2.70011 20.2881C2.67553 19.3158 2.66442 18.3433 2.66677 17.3707V14.6294C2.66308 13.6569 2.67286 12.6843 2.69611 11.7121L2.70544 11.4534C2.71611 11.1534 2.72944 10.8587 2.74544 10.5041C2.81211 9.08408 3.03611 8.11741 3.36544 7.26675C3.70103 6.37635 4.22707 5.57 4.90677 4.90408C5.57231 4.22615 6.37769 3.70151 7.26677 3.36675C8.11744 3.03741 9.08411 2.81341 10.5041 2.74675C10.8588 2.73075 11.1548 2.71741 11.4534 2.70675L11.7121 2.69875C12.6844 2.67506 13.6569 2.66484 14.6294 2.66808L17.3708 2.66675ZM16.0001 9.33342C14.232 9.33342 12.5363 10.0358 11.2861 11.286C10.0358 12.5363 9.33344 14.232 9.33344 16.0001C9.33344 17.7682 10.0358 19.4639 11.2861 20.7141C12.5363 21.9644 14.232 22.6667 16.0001 22.6667C17.7682 22.6667 19.4639 21.9644 20.7142 20.7141C21.9644 19.4639 22.6668 17.7682 22.6668 16.0001C22.6668 14.232 21.9644 12.5363 20.7142 11.286C19.4639 10.0358 17.7682 9.33342 16.0001 9.33342ZM16.0001 12.0001C16.5254 12 17.0456 12.1034 17.5309 12.3043C18.0162 12.5052 18.4572 12.7998 18.8287 13.1712C19.2002 13.5426 19.4949 13.9835 19.696 14.4687C19.8971 14.954 20.0007 15.4741 20.0008 15.9994C20.0009 16.5247 19.8975 17.0449 19.6965 17.5302C19.4956 18.0155 19.201 18.4565 18.8297 18.828C18.4583 19.1995 18.0174 19.4942 17.5321 19.6953C17.0469 19.8964 16.5267 20 16.0014 20.0001C14.9406 20.0001 13.9232 19.5787 13.173 18.8285C12.4229 18.0784 12.0014 17.0609 12.0014 16.0001C12.0014 14.9392 12.4229 13.9218 13.173 13.1717C13.9232 12.4215 14.9406 12.0001 16.0014 12.0001M23.0014 7.33342C22.5594 7.33342 22.1355 7.50901 21.8229 7.82157C21.5104 8.13413 21.3348 8.55805 21.3348 9.00008C21.3348 9.44211 21.5104 9.86603 21.8229 10.1786C22.1355 10.4912 22.5594 10.6667 23.0014 10.6667C23.4435 10.6667 23.8674 10.4912 24.18 10.1786C24.4925 9.86603 24.6681 9.44211 24.6681 9.00008C24.6681 8.55805 24.4925 8.13413 24.18 7.82157C23.8674 7.50901 23.4435 7.33342 23.0014 7.33342Z" fill="#555555"/>
</svg>
