<svg width="160" height="40" viewBox="0 0 160 40" fill="none" xmlns="http://www.w3.org/2000/svg">
<rect x="0.228137" y="9.80992" width="22.3574" height="29.962" rx="2.20532" fill="#C23739" stroke="white" stroke-width="0.456274"/>
<rect x="3.42345" y="6.61608" width="22.3574" height="29.962" rx="2.20532" fill="#C23739" stroke="white" stroke-width="0.456274"/>
<rect x="6.61681" y="3.42198" width="22.3574" height="29.962" rx="2.20532" fill="#C23739" stroke="white" stroke-width="0.456274"/>
<rect x="9.81017" y="0.228137" width="22.3574" height="29.962" rx="2.20532" fill="#C23739" stroke="white" stroke-width="0.456274"/>
<path d="M21.3608 23.0132C19.5438 23.0132 18.194 22.4032 17.3115 21.1832C16.4419 19.9502 16.0072 18.2176 16.0072 15.9853C16.0072 13.753 16.4419 12.0269 17.3115 10.8069C18.194 9.57396 19.5438 8.95749 21.3608 8.95749C22.0616 8.95749 22.6781 9.05483 23.2102 9.2495C23.7553 9.4312 24.2225 9.69077 24.6119 10.0282C25.0012 10.3657 25.3192 10.7745 25.5658 11.2547C25.8254 11.7349 26.0265 12.2735 26.1693 12.8705L23.4438 13.5324C23.3659 13.2079 23.2751 12.9094 23.1713 12.6369C23.0674 12.3643 22.9312 12.1307 22.7624 11.936C22.6067 11.7414 22.4055 11.5921 22.1589 11.4883C21.9253 11.3715 21.6398 11.3131 21.3024 11.3131C20.5107 11.3131 19.9461 11.6246 19.6087 12.2475C19.2842 12.8575 19.122 13.7076 19.122 14.7978V17.1728C19.122 18.263 19.2842 19.1196 19.6087 19.7426C19.9461 20.3526 20.5107 20.6576 21.3024 20.6576C21.9772 20.6576 22.4639 20.4499 22.7624 20.0346C23.0739 19.6193 23.3011 19.0872 23.4438 18.4382L26.1693 19.1001C26.0265 19.6972 25.8254 20.2358 25.5658 20.716C25.3192 21.1962 25.0012 21.6115 24.6119 21.9619C24.2225 22.2993 23.7553 22.5589 23.2102 22.7406C22.6781 22.9223 22.0616 23.0132 21.3608 23.0132Z" fill="white"/>
<path d="M52.3178 32.3869C49.3084 32.3869 47.0729 31.3766 45.6112 29.356C44.171 27.314 43.4509 24.4443 43.4509 20.7471C43.4509 17.0498 44.171 14.1909 45.6112 12.1703C47.0729 10.1283 49.3084 9.10722 52.3178 9.10722C53.4786 9.10722 54.4996 9.26844 55.3809 9.59087C56.2837 9.89181 57.0576 10.3217 57.7024 10.8806C58.3473 11.4395 58.8739 12.1166 59.2824 12.9119C59.7123 13.7073 60.0455 14.5993 60.2819 15.5881L55.7678 16.6844C55.6389 16.147 55.4884 15.6526 55.3164 15.2012C55.1445 14.7498 54.9188 14.3629 54.6393 14.0405C54.3814 13.718 54.0482 13.4708 53.6398 13.2989C53.2529 13.1054 52.78 13.0087 52.2211 13.0087C50.9098 13.0087 49.9748 13.5246 49.4159 14.5564C48.8785 15.5666 48.6098 16.9746 48.6098 18.7802V22.7139C48.6098 24.5195 48.8785 25.9383 49.4159 26.97C49.9748 27.9803 50.9098 28.4855 52.2211 28.4855C53.3388 28.4855 54.1449 28.1415 54.6393 27.4537C55.1552 26.7658 55.5314 25.8845 55.7678 24.8097L60.2819 25.906C60.0455 26.8948 59.7123 27.7869 59.2824 28.5822C58.8739 29.3775 58.3473 30.0654 57.7024 30.6458C57.0576 31.2047 56.2837 31.6346 55.3809 31.9355C54.4996 32.2365 53.4786 32.3869 52.3178 32.3869ZM77.1648 32C76.176 32 75.3807 31.7528 74.7788 31.2584C74.1769 30.7425 73.8223 30.0117 73.7148 29.0659H73.5536C73.2526 30.1621 72.6508 30.9897 71.7479 31.5486C70.8666 32.1075 69.7811 32.3869 68.4914 32.3869C66.8792 32.3869 65.5787 31.957 64.5899 31.0972C63.6226 30.2159 63.139 28.9906 63.139 27.4214C63.139 25.6803 63.7731 24.3906 65.0413 23.5522C66.3096 22.7139 68.1689 22.2948 70.6194 22.2948H73.2956V21.4564C73.2956 20.4676 73.0592 19.726 72.5863 19.2316C72.1349 18.7157 71.361 18.4578 70.2647 18.4578C69.2545 18.4578 68.4376 18.6513 67.8143 19.0382C67.1909 19.4251 66.6535 19.9302 66.2021 20.5536L63.5904 18.2321C64.1493 17.2863 65.0198 16.5124 66.2021 15.9106C67.4058 15.2872 68.9428 14.9755 70.8129 14.9755C73.0914 14.9755 74.8648 15.5022 76.133 16.5554C77.4228 17.5872 78.0676 19.1564 78.0676 21.263V28.55H79.9055V32H77.1648ZM70.297 29.2593C71.1353 29.2593 71.8447 29.0551 72.4251 28.6467C73.0054 28.2383 73.2956 27.6471 73.2956 26.8733V24.8742H70.7484C68.7923 24.8742 67.8143 25.5298 67.8143 26.8411V27.4859C67.8143 28.0663 68.04 28.507 68.4914 28.8079C68.9428 29.1088 69.5446 29.2593 70.297 29.2593ZM83.1817 28.292H87.0187V19.0704H83.1817V15.3624H91.7907V20.07H92.0164C92.1669 19.4681 92.3711 18.8877 92.629 18.3288C92.9085 17.7484 93.2524 17.2433 93.6608 16.8134C94.0907 16.362 94.6066 16.0073 95.2085 15.7494C95.8104 15.4914 96.5197 15.3624 97.3366 15.3624H98.9165V19.7475H95.3697C94.1875 19.7475 93.2954 20.1022 92.6935 20.8116C92.0916 21.4994 91.7907 22.3485 91.7907 23.3588V28.292H97.2721V32H83.1817V28.292ZM112.801 28.9691H112.575C112.145 29.9794 111.543 30.807 110.769 31.4519C110.017 32.0752 108.975 32.3869 107.642 32.3869C106.718 32.3869 105.868 32.215 105.095 31.871C104.342 31.5271 103.687 31.0005 103.128 30.2911C102.59 29.5817 102.16 28.6789 101.838 27.5827C101.537 26.4864 101.387 25.1859 101.387 23.6812C101.387 22.1765 101.537 20.876 101.838 19.7798C102.16 18.6835 102.59 17.7807 103.128 17.0713C103.687 16.362 104.342 15.8353 105.095 15.4914C105.868 15.1475 106.718 14.9755 107.642 14.9755C108.308 14.9755 108.899 15.0615 109.415 15.2335C109.931 15.4054 110.383 15.6419 110.769 15.9428C111.178 16.2438 111.522 16.6092 111.801 17.0391C112.102 17.4475 112.36 17.8989 112.575 18.3933H112.801V8.13993H117.573V32H112.801V28.9691ZM109.705 28.6789C110.544 28.6789 111.264 28.4747 111.866 28.0663C112.489 27.6579 112.801 27.013 112.801 26.1317V21.2307C112.801 20.3494 112.489 19.7045 111.866 19.2961C111.264 18.8877 110.544 18.6835 109.705 18.6835C108.631 18.6835 107.803 19.0167 107.223 19.683C106.642 20.3279 106.352 21.2307 106.352 22.3915V24.971C106.352 26.1317 106.642 27.0453 107.223 27.7116C107.803 28.3565 108.631 28.6789 109.705 28.6789ZM121.655 28.292H126.75V11.8479H121.655V8.13993H131.522V28.292H136.616V32H121.655V28.292ZM148.92 32.3869C146.126 32.3869 144.009 31.6131 142.568 30.0654C141.128 28.5177 140.408 26.4112 140.408 23.7457C140.408 22.3915 140.591 21.177 140.956 20.1022C141.343 19.0059 141.881 18.0816 142.568 17.3293C143.278 16.5554 144.127 15.9751 145.116 15.5881C146.126 15.1797 147.254 14.9755 148.501 14.9755C149.748 14.9755 150.866 15.1797 151.855 15.5881C152.843 15.9751 153.682 16.5339 154.369 17.2648C155.057 17.9956 155.584 18.8877 155.949 19.941C156.336 20.9728 156.53 22.1335 156.53 23.4233V24.842H145.148V25.1322C145.148 26.2069 145.481 27.0775 146.147 27.7439C146.814 28.3887 147.792 28.7112 149.082 28.7112C150.07 28.7112 150.919 28.5285 151.629 28.163C152.338 27.7761 152.951 27.271 153.467 26.6476L156.046 29.4528C155.401 30.2481 154.498 30.936 153.338 31.5163C152.177 32.0967 150.705 32.3869 148.92 32.3869ZM148.533 18.3933C147.502 18.3933 146.674 18.7157 146.051 19.3606C145.449 19.984 145.148 20.8331 145.148 21.9078V22.1658H151.855V21.9078C151.855 20.8116 151.554 19.9517 150.952 19.3284C150.371 18.705 149.565 18.3933 148.533 18.3933Z" fill="#C23739"/>
</svg>
