<svg width="33" height="40" viewBox="0 0 33 40" fill="none" xmlns="http://www.w3.org/2000/svg">
<rect x="0.228137" y="9.80989" width="22.3574" height="29.962" rx="2.20532" fill="#C23739" stroke="white" stroke-width="0.456274"/>
<rect x="3.42198" y="6.61595" width="22.3574" height="29.962" rx="2.20532" fill="#C23739" stroke="white" stroke-width="0.456274"/>
<rect x="6.61583" y="3.42205" width="22.3574" height="29.962" rx="2.20532" fill="#C23739" stroke="white" stroke-width="0.456274"/>
<rect x="9.80968" y="0.228137" width="22.3574" height="29.962" rx="2.20532" fill="#C23739" stroke="white" stroke-width="0.456274"/>
<path d="M21.3608 23.0131C19.5438 23.0131 18.194 22.4031 17.3115 21.1831C16.4419 19.9502 16.0072 18.2176 16.0072 15.9853C16.0072 13.753 16.4419 12.0268 17.3115 10.8069C18.194 9.5739 19.5438 8.95743 21.3608 8.95743C22.0616 8.95743 22.6781 9.05476 23.2102 9.24944C23.7553 9.43114 24.2225 9.69071 24.6119 10.0281C25.0012 10.3656 25.3192 10.7744 25.5658 11.2546C25.8254 11.7348 26.0265 12.2734 26.1693 12.8704L23.4438 13.5323C23.3659 13.2079 23.2751 12.9094 23.1713 12.6368C23.0674 12.3643 22.9312 12.1307 22.7624 11.936C22.6067 11.7413 22.4055 11.5921 22.1589 11.4882C21.9253 11.3714 21.6398 11.313 21.3024 11.313C20.5107 11.313 19.9461 11.6245 19.6087 12.2475C19.2842 12.8575 19.122 13.7075 19.122 14.7977V17.1728C19.122 18.263 19.2842 19.1196 19.6087 19.7425C19.9461 20.3525 20.5107 20.6575 21.3024 20.6575C21.9772 20.6575 22.4639 20.4498 22.7624 20.0345C23.0739 19.6192 23.3011 19.0871 23.4438 18.4382L26.1693 19.1001C26.0265 19.6971 25.8254 20.2357 25.5658 20.7159C25.3192 21.1961 25.0012 21.6114 24.6119 21.9618C24.2225 22.2993 23.7553 22.5588 23.2102 22.7405C22.6781 22.9222 22.0616 23.0131 21.3608 23.0131Z" fill="white"/>
</svg>
